/* XPM */
static char* pixmap[] = {
"32 32 116 2",
"00	c #000000",
"01	c #0000a8",
"02	c #00ff00",
"03	c #fffb00",
"04	c #82ff00",
"05	c #00ff00",
"06	c #00ff7d",
"07	c #00ffff",
"08	c #0082ff",
"09	c #0000ff",
"0A	c #7900ff",
"0B	c #cf00ff",
"0C	c #ff00d7",
"0D	c #ff0082",
"0E	c #ff0000",
"0F	c #ff7d00",
"10	c #cb9a45",
"11	c #963c18",
"12	c #610000",
"13	c #fff782",
"14	c #c3ff82",
"15	c #82ff82",
"16	c #82ffbe",
"17	c #82ffff",
"18	c #82c3ff",
"19	c #8282ff",
"1A	c #a682ff",
"1B	c #cf82ff",
"1C	c #fb82ff",
"1D	c #ff82c3",
"1E	c #ff8282",
"1F	c #ff9e82",
"20	c #820000",
"21	c #821c00",
"22	c #823c00",
"23	c #825100",
"24	c #826500",
"25	c #827900",
"26	c #418200",
"27	c #008200",
"28	c #00823c",
"29	c #008282",
"2A	c #004182",
"2B	c #000082",
"2C	c #280082",
"2D	c #4d0082",
"2E	c #790082",
"2F	c #820041",
"30	c #000000",
"31	c #101010",
"32	c #202020",
"33	c #303030",
"34	c #454545",
"35	c #555555",
"36	c #656565",
"37	c #757575",
"38	c #868686",
"39	c #9a9a9a",
"3A	c #aaaaaa",
"3B	c #bababa",
"3C	c #cbcbcb",
"3D	c #dfdfdf",
"3E	c #efefef",
"3F	c #ffffff",
"40	c #4d0000",
"41	c #590000",
"42	c #710000",
"43	c #860000",
"44	c #9e0000",
"45	c #b60000",
"46	c #cf0000",
"47	c #e70000",
"48	c #ff0000",
"49	c #ff1c1c",
"4A	c #ff3434",
"4B	c #ff5151",
"4C	c #ff6d6d",
"4D	c #ff8a8a",
"4E	c #ffa2a2",
"4F	c #ffbebe",
"50	c #4d2400",
"51	c #552800",
"52	c #6d3400",
"53	c #863c00",
"54	c #9e4900",
"55	c #b65900",
"56	c #cf6500",
"57	c #e77100",
"58	c #ff7d00",
"59	c #ff8e1c",
"5A	c #ff9a34",
"5B	c #ffa651",
"5C	c #ffb26d",
"5D	c #ffbe86",
"5E	c #ffcfa2",
"5F	c #ffdfbe",
"60	c #4d4900",
"61	c #595100",
"62	c #716900",
"63	c #868200",
"64	c #9e9600",
"65	c #b6ae00",
"66	c #cfc700",
"67	c #e7e300",
"68	c #ffff00",
"69	c #ffff1c",
"6A	c #fffb34",
"6B	c #fffb51",
"6C	c #fff76d",
"6D	c #fffb86",
"6E	c #fffba2",
"6F	c #fffbbe",
"70	c #004d00",
"71	c #006100",
"72	c #007900",
"73	c #008e00",
"2626262626262626262626262626267171262626262671262626727226262626",
"2626262626267126262626262626262626712626712626262626262626262626",
"2626262626262626262626262627262626262626272626262626262626262626",
"2673737373737373732626272626262626262626262626267171717070262626",
"7171717171717171267171262626717126262626737373737373712626707070",
"7070707070707126262626262626717126262671267070707070707070707070",
"7272727272727272722626707070707026712671267172727272727272722626",
"7226262671262627262626272626262626262671262672262626262626272726",
"2626262626262626712626262626267171717171717171712626272626712626",
"2626262671262671262626262626717170707070707070707070262626262626",
"2626262626272626262626262627262672727272727272727272262626262626",
"2626262626712671717226262671262626267271272626262626262626262626",
"71262626262733333333333333333A7326262626267171262671262626262626",
"2626262626713333313131313133333A3A262626262671262626262626262626",
"2626712626263331313131313131313A3A3A3126262671262626712626262627",
"2627262671263131313131313137313131313A3A312671267126262626262726",
"2626262626723131310E31310E0E3131313131313A3A31262626262671262626",
"26262626267331310E310E0E303131313131313131313A313126262626267226",
"2626712671733131310E37313131313131313131313131313131312626262626",
"2671262626713131313131313131313131313131313131313131312626262626",
"2726262626263131313131313131313131313131313131313131312727722626",
"2673737373733131313131313131313131313131313131313131317127262626",
"2626272671733131333133313331333133313331333133313331312626262626",
"7071717171717070707026262626262726717126262626272626737373737373",
"7070707070267272262671262626262626262626262626267171717171712626",
"2626727272727272272626267126262626262726712626712670707071717126",
"7072722626262626267127267173737326712626262626262626272670707070",
"2626262626262626712626737373717171717171712771717126262626262626",
"2726262670262671707071717171717070262626717171717171262627262626",
"2626272626262626727272727227267270707070702771262626262626262626",
"2627262771712626262626267272727172727226267172262626262626262626",
"2626262671712626262726277126727272272626272626262626262626262626"
};
