/* XPM */
static char* pixmap[] = {
"32 32 116 2",
"00	c #000000",
"01	c #0000a8",
"02	c #00ff00",
"03	c #fffb00",
"04	c #82ff00",
"05	c #00ff00",
"06	c #00ff7d",
"07	c #00ffff",
"08	c #0082ff",
"09	c #0000ff",
"0A	c #7900ff",
"0B	c #cf00ff",
"0C	c #ff00d7",
"0D	c #ff0082",
"0E	c #ff0000",
"0F	c #ff7d00",
"10	c #cb9a45",
"11	c #963c18",
"12	c #610000",
"13	c #fff782",
"14	c #c3ff82",
"15	c #82ff82",
"16	c #82ffbe",
"17	c #82ffff",
"18	c #82c3ff",
"19	c #8282ff",
"1A	c #a682ff",
"1B	c #cf82ff",
"1C	c #fb82ff",
"1D	c #ff82c3",
"1E	c #ff8282",
"1F	c #ff9e82",
"20	c #820000",
"21	c #821c00",
"22	c #823c00",
"23	c #825100",
"24	c #826500",
"25	c #827900",
"26	c #418200",
"27	c #008200",
"28	c #00823c",
"29	c #008282",
"2A	c #004182",
"2B	c #000082",
"2C	c #280082",
"2D	c #4d0082",
"2E	c #790082",
"2F	c #820041",
"30	c #000000",
"31	c #101010",
"32	c #202020",
"33	c #303030",
"34	c #454545",
"35	c #555555",
"36	c #656565",
"37	c #757575",
"38	c #868686",
"39	c #9a9a9a",
"3A	c #aaaaaa",
"3B	c #bababa",
"3C	c #cbcbcb",
"3D	c #dfdfdf",
"3E	c #efefef",
"3F	c #ffffff",
"40	c #4d0000",
"41	c #590000",
"42	c #710000",
"43	c #860000",
"44	c #9e0000",
"45	c #b60000",
"46	c #cf0000",
"47	c #e70000",
"48	c #ff0000",
"49	c #ff1c1c",
"4A	c #ff3434",
"4B	c #ff5151",
"4C	c #ff6d6d",
"4D	c #ff8a8a",
"4E	c #ffa2a2",
"4F	c #ffbebe",
"50	c #4d2400",
"51	c #552800",
"52	c #6d3400",
"53	c #863c00",
"54	c #9e4900",
"55	c #b65900",
"56	c #cf6500",
"57	c #e77100",
"58	c #ff7d00",
"59	c #ff8e1c",
"5A	c #ff9a34",
"5B	c #ffa651",
"5C	c #ffb26d",
"5D	c #ffbe86",
"5E	c #ffcfa2",
"5F	c #ffdfbe",
"60	c #4d4900",
"61	c #595100",
"62	c #716900",
"63	c #868200",
"64	c #9e9600",
"65	c #b6ae00",
"66	c #cfc700",
"67	c #e7e300",
"68	c #ffff00",
"69	c #ffff1c",
"6A	c #fffb34",
"6B	c #fffb51",
"6C	c #fff76d",
"6D	c #fffb86",
"6E	c #fffba2",
"6F	c #fffbbe",
"70	c #004d00",
"71	c #006100",
"72	c #007900",
"73	c #008e00",
"2626267272262626373737373737373737373737373837262626262626262626",
"3826262626262626262627262627727272267127262726262671712626262638",
"3826262626262626727126267272727172727226262626262671712726272638",
"3738262626262626712770707070707226277272727272262626262627263837",
"3738373737373737373737373737373737373737373737373737373737373837",
"2637383838383838383838383838383838383838383838383838383838383726",
"7037702627262626262626262671267373737126277126262626262672383770",
"7137387070702671262671262726262626267126262627727272727272383726",
"2637387171717126262626262626262626262626712626727226707070377026",
"7373377373262627262626267171262726262626267070707071717138377073",
"2626373826262626262626262626262626262626262626262673712638372626",
"2626373826262626262626262626262626262626262626262673737338372626",
"2672373826262626262626262626262626262626262626262626263837262726",
"2626263726262626262626262626262626262626262626262671263837712626",
"2626263738262626262626262626262626262626262626262673713837262626",
"7226263738373737373737373737373737373737373737373737383726262626",
"2626712637383838383838383838383838383838383838383838383726262626",
"2726262637387126712626262626262626262626262626262626383726272626",
"2626262637382626712626262626262626262626262626262626372671262627",
"2626262637382626712626262626262626262626262626262638372626262626",
"2626262626373826717126262626267326262626262626262638372626267126",
"2626262626373826262627717226262626262626267271712637262626262626",
"2626262626373837373737373737373737373737373737373837262626262626",
"2626262626703738383838383838383838383838383838383837712626262626",
"2671262627263738717171717171717126262626262671263726262626262626",
"2727262626263738722626712626262626262627262626383726712626267226",
"2672727272723738373737373737373737373737373737383772727272727226",
"7070707070707037383838383838383838383838383838383770707070707070",
"7070262671737337387373262626267171262626717138377171717171717170",
"2626707071717137373737373737373737373737373738377373737373732626",
"2626262626262637383838383838383838383838383838372626262626262626",
"2626262626262626373871262671262626262626263837267126262626262626"
};
