/* XPM */
static char* pixmap[] = {
"32 32 242 2",
"00	c #000000",
"01	c #0000a8",
"02	c #00ff00",
"03	c #fffb00",
"04	c #82ff00",
"05	c #00ff00",
"06	c #00ff7d",
"07	c #00ffff",
"08	c #0082ff",
"09	c #0000ff",
"0A	c #7900ff",
"0B	c #cf00ff",
"0C	c #ff00d7",
"0D	c #ff0082",
"0E	c #ff0000",
"0F	c #ff7d00",
"10	c #cb9a45",
"11	c #963c18",
"12	c #610000",
"13	c #fff782",
"14	c #c3ff82",
"15	c #82ff82",
"16	c #82ffbe",
"17	c #82ffff",
"18	c #82c3ff",
"19	c #8282ff",
"1A	c #a682ff",
"1B	c #cf82ff",
"1C	c #fb82ff",
"1D	c #ff82c3",
"1E	c #ff8282",
"1F	c #ff9e82",
"20	c #820000",
"21	c #821c00",
"22	c #823c00",
"23	c #825100",
"24	c #826500",
"25	c #827900",
"26	c #418200",
"27	c #008200",
"28	c #00823c",
"29	c #008282",
"2A	c #004182",
"2B	c #000082",
"2C	c #280082",
"2D	c #4d0082",
"2E	c #790082",
"2F	c #820041",
"30	c #000000",
"31	c #101010",
"32	c #202020",
"33	c #303030",
"34	c #454545",
"35	c #555555",
"36	c #656565",
"37	c #757575",
"38	c #868686",
"39	c #9a9a9a",
"3A	c #aaaaaa",
"3B	c #bababa",
"3C	c #cbcbcb",
"3D	c #dfdfdf",
"3E	c #efefef",
"3F	c #ffffff",
"40	c #4d0000",
"41	c #590000",
"42	c #710000",
"43	c #860000",
"44	c #9e0000",
"45	c #b60000",
"46	c #cf0000",
"47	c #e70000",
"48	c #ff0000",
"49	c #ff1c1c",
"4A	c #ff3434",
"4B	c #ff5151",
"4C	c #ff6d6d",
"4D	c #ff8a8a",
"4E	c #ffa2a2",
"4F	c #ffbebe",
"50	c #4d2400",
"51	c #552800",
"52	c #6d3400",
"53	c #863c00",
"54	c #9e4900",
"55	c #b65900",
"56	c #cf6500",
"57	c #e77100",
"58	c #ff7d00",
"59	c #ff8e1c",
"5A	c #ff9a34",
"5B	c #ffa651",
"5C	c #ffb26d",
"5D	c #ffbe86",
"5E	c #ffcfa2",
"5F	c #ffdfbe",
"60	c #4d4900",
"61	c #595100",
"62	c #716900",
"63	c #868200",
"64	c #9e9600",
"65	c #b6ae00",
"66	c #cfc700",
"67	c #e7e300",
"68	c #ffff00",
"69	c #ffff1c",
"6A	c #fffb34",
"6B	c #fffb51",
"6C	c #fff76d",
"6D	c #fffb86",
"6E	c #fffba2",
"6F	c #fffbbe",
"70	c #004d00",
"71	c #006100",
"72	c #007900",
"73	c #008e00",
"74	c #00a600",
"75	c #00ba00",
"76	c #00d300",
"77	c #00eb00",
"78	c #00ff00",
"79	c #1cff1c",
"7A	c #38ff34",
"7B	c #55ff51",
"7C	c #71ff6d",
"7D	c #8aff86",
"7E	c #a6ffa2",
"7F	c #c3ffbe",
"80	c #004141",
"81	c #005959",
"82	c #007171",
"83	c #008686",
"84	c #009e9e",
"85	c #00b6b6",
"86	c #00cfcf",
"87	c #00e7e7",
"88	c #00ffff",
"89	c #59fffb",
"8A	c #75fffb",
"8B	c #8affff",
"8C	c #9efffb",
"8D	c #baffff",
"8E	c #cbffff",
"8F	c #dbffff",
"90	c #002041",
"91	c #002c59",
"92	c #003871",
"93	c #004586",
"94	c #00519e",
"95	c #005db6",
"96	c #0069cf",
"97	c #0075e7",
"98	c #0082ff",
"99	c #1c8eff",
"9A	c #349eff",
"9B	c #51aaff",
"9C	c #6dbaff",
"9D	c #8acbff",
"9E	c #a2d7ff",
"9F	c #bee3ff",
"A0	c #00004d",
"A1	c #000065",
"A2	c #000479",
"A3	c #00048e",
"A4	c #0004a6",
"A5	c #0000be",
"A6	c #0000d3",
"A7	c #0000eb",
"A8	c #0000ff",
"A9	c #1c24ff",
"AA	c #343cff",
"AB	c #515dff",
"AC	c #6d79ff",
"AD	c #8a92ff",
"AE	c #a2aaff",
"AF	c #bec7ff",
"B0	c #24004d",
"B1	c #300065",
"B2	c #410082",
"B3	c #4d009a",
"B4	c #5900b2",
"B5	c #6500cb",
"B6	c #7100e7",
"B7	c #7900ff",
"B8	c #8200ff",
"B9	c #8e1cff",
"BA	c #9634ff",
"BB	c #a651ff",
"BC	c #ae6dff",
"BD	c #be86ff",
"BE	c #cba2ff",
"BF	c #dbbeff",
"C0	c #49004d",
"C1	c #5f0063",
"C2	c #75007a",
"C3	c #8b0090",
"C4	c #a100a7",
"C5	c #b700bd",
"C6	c #cd00d4",
"C7	c #e300eb",
"C8	c #e617ed",
"C9	c #ea2ff0",
"CA	c #ed47f2",
"CB	c #f15ff5",
"CC	c #f476f7",
"CD	c #f88efa",
"CE	c #fba6fc",
"CF	c #ffbeff",
"D0	c #200000",
"D1	c #2c0000",
"D2	c #380404",
"D3	c #490c08",
"D4	c #551410",
"D5	c #612018",
"D6	c #712824",
"D7	c #7d382c",
"D8	c #864538",
"D9	c #9a594d",
"DA	c #aa6d5d",
"DB	c #ba8275",
"DC	c #cb9a8a",
"DD	c #dfb2a2",
"DE	c #efcfbe",
"DF	c #ffebdf",
"E0	c #202000",
"E1	c #3c3c00",
"E2	c #514d00",
"E3	c #655908",
"E4	c #79650c",
"E5	c #8e6d14",
"E6	c #a2791c",
"E7	c #b67d28",
"E8	c #be8238",
"E9	c #c78e4d",
"EA	c #cf9661",
"EB	c #dba675",
"EC	c #e3b28e",
"ED	c #ebc3a6",
"EE	c #f7d3c3",
"EF	c #ffebdf",
"F0	c #ff1c1c",
"F1	c #ff1c1c",
"2626262626262626267172262626262626262626262626262627727226262626",
"2626262626262626267126262626272626262626262626262626262626262626",
"2626262626262627262626262626323232262626262626722626262626262626",
"2626262626262626262627272632323232322626722626277070707070262626",
"7126262671717171717171712632323232323232327170707071717170707070",
"26262626707070272626272626325B5B5B327171722626722626277226712626",
"707070707026262726717126265B3232325B2726267272727272727272722626",
"2626727272727272262670707032323232322627267126262626262626272726",
"26262626262626267070702726265B5B5B707070262627262626262626262626",
"72712826267126267171717171715B5B5B717127272627712626262626262626",
"2771267227262671262A2A091E1E2503F17E56092A2A26262672262626262672",
"2626262626262626092A2A091F1F1E1EF1567E092A2A09712626262626262626",
"2626262627267227092A2A091E1E0B0BF10B0B092A2A09262626722626262626",
"7226272627262726092A2609050E1CA7F1037E09722A09262626272626262626",
"2626262627262626092A2609050E1CA7F17E7E09262A09727272727226262627",
"7226262627262627092A2609050E1CA7F17E7E09262A09707171712626262726",
"2627272727722626092A7209050E1CA7F17E7E09272A09272626267172262626",
"2626272726262626092A71111111111111111111262A09262726262626267226",
"27262626727272725B5B26202126277171702021715B5B262626262726262626",
"26262726267170705B5B70202172727272722021265B5B262626262726262626",
"2726267070707071717171202126277226262021727227262626272726722626",
"2626262626277127262726202126262671722021262627272626262627262626",
"7026262672262626262627202126712726262021262626272627712626262626",
"7026262626262671262626202126262627712021707070707070707070707070",
"702726262671722626275B5B5B5B712726265B5B5B5B71717171717171262626",
"702671262626272627715B5B5B5B712626725B5B5B5B26727272727271722626",
"707070267127267126265B5B5B5B262670705B5B5B5B26722626262626262626",
"2626262626267226712726262626262771717171707070272626262626262626",
"2726262670707070707070272626727226262671717170707171262627262626",
"2626272626717171717170262726267272727272727226262626262626262626",
"2627262771712626262626262772277227262626267272262626262626262626",
"2626262626262626262726277126272626262626272626262626262626262626"
};
